HIERARCHY
ROOT hip
{
  OFFSET 0 0 0
  CHANNELS 6 Xposition Yposition Zposition Zrotation Yrotation Xrotation
  JOINT abdomen
  {
    OFFSET 0 20.6881 -0.73152
    CHANNELS 3 Zrotation Xrotation Yrotation
    JOINT chest
    {
      OFFSET 0 11.7043 -0.48768
      CHANNELS 3 Zrotation Xrotation Yrotation
      JOINT neck
      {
        OFFSET 0 22.1894 -2.19456
        CHANNELS 3 Zrotation Xrotation Yrotation
        JOINT head
        {
          OFFSET -0.24384 7.07133 1.2192
          CHANNELS 3 Zrotation Xrotation Yrotation
          JOINT leftEye
          {
            OFFSET 4.14528 8.04674 8.04672
            CHANNELS 3 Zrotation Xrotation Yrotation
            End Site
            {
              OFFSET 1 0 0
            }
          }
          JOINT rightEye
          {
            OFFSET -3.6576 8.04674 8.04672
            CHANNELS 3 Zrotation Xrotation Yrotation
            End Site
            {
              OFFSET 1 0 0
            }
          }
        }
      }
      JOINT rCollar
      {
        OFFSET -2.68224 19.2634 -4.8768
        CHANNELS 3 Zrotation Xrotation Yrotation
        JOINT rShldr
        {
          OFFSET -8.77824 -1.95073 1.46304
          CHANNELS 3 Zrotation Xrotation Yrotation
          JOINT rForeArm
          {
            OFFSET -28.1742 -1.7115 0.48768
            CHANNELS 3 Zrotation Xrotation Yrotation
            JOINT rHand
            {
              OFFSET -22.5879 0.773209 7.07136
              CHANNELS 3 Zrotation Xrotation Yrotation
              JOINT rThumb1
              {
                OFFSET -1.2192 -0.487915 3.41376
                CHANNELS 3 Zrotation Xrotation Yrotation
                JOINT rThumb2
                {
                  OFFSET -3.37035 -0.52449 3.41376
                  CHANNELS 3 Zrotation Xrotation Yrotation
                  End Site
                  {
                    OFFSET -1.78271 -1.18214 1.43049
                  }
                }
              }
              JOINT rIndex1
              {
                OFFSET -7.75947 0.938293 5.60832
                CHANNELS 3 Zrotation Xrotation Yrotation
                JOINT rIndex2
                {
                  OFFSET -2.54057 -0.884171 1.56538
                  CHANNELS 3 Zrotation Xrotation Yrotation
                  End Site
                  {
                    OFFSET -1.62519 -0.234802 1.16502
                  }
                }
              }
              JOINT rMid1
              {
                OFFSET -8.24714 1.18213 3.41376
                CHANNELS 3 Zrotation Xrotation Yrotation
                JOINT rMid2
                {
                  OFFSET -3.10165 -0.590103 1.0647
                  CHANNELS 3 Zrotation Xrotation Yrotation
                  End Site
                  {
                    OFFSET -2.48547 -0.328903 0.83742
                  }
                }
              }
              JOINT rRing1
              {
                OFFSET -8.82822 0.546677 1.51678
                CHANNELS 3 Zrotation Xrotation Yrotation
                JOINT rRing2
                {
                  OFFSET -2.60934 -0.819778 -0.0198488
                  CHANNELS 3 Zrotation Xrotation Yrotation
                  End Site
                  {
                    OFFSET -2.33842 -0.294052 0.168128
                  }
                }
              }
              JOINT rPinky1
              {
                OFFSET -8.27202 -0.0477905 -0.4584
                CHANNELS 3 Zrotation Xrotation Yrotation
                JOINT rPinky2
                {
                  OFFSET -1.82734 -0.647385 -0.700984
                  CHANNELS 3 Zrotation Xrotation Yrotation
                  End Site
                  {
                    OFFSET -1.69225 -0.51767 -0.607171
                  }
                }
              }
            }
          }
        }
      }
      JOINT lCollar
      {
        OFFSET 2.68224 19.2634 -4.8768
        CHANNELS 3 Zrotation Xrotation Yrotation
        JOINT lShldr
        {
          OFFSET 8.77824 -1.95073 1.46304
          CHANNELS 3 Zrotation Xrotation Yrotation
          JOINT lForeArm
          {
            OFFSET 28.1742 -1.7115 0.48768
            CHANNELS 3 Zrotation Xrotation Yrotation
            JOINT lHand
            {
              OFFSET 22.5879 0.773209 7.07136
              CHANNELS 3 Zrotation Xrotation Yrotation
              JOINT lThumb1
              {
                OFFSET 1.2192 -0.487915 3.41376
                CHANNELS 3 Zrotation Xrotation Yrotation
                JOINT lThumb2
                {
                  OFFSET 3.37035 -0.52449 3.41376
                  CHANNELS 3 Zrotation Xrotation Yrotation
                  End Site
                  {
                    OFFSET 1.78271 -1.18214 1.43049
                  }
                }
              }
              JOINT lIndex1
              {
                OFFSET 7.75947 0.938293 5.60832
                CHANNELS 3 Zrotation Xrotation Yrotation
                JOINT lIndex2
                {
                  OFFSET 2.54057 -0.884171 1.56538
                  CHANNELS 3 Zrotation Xrotation Yrotation
                  End Site
                  {
                    OFFSET 1.62519 -0.234802 1.16502
                  }
                }
              }
              JOINT lMid1
              {
                OFFSET 8.24714 1.18213 3.41376
                CHANNELS 3 Zrotation Xrotation Yrotation
                JOINT lMid2
                {
                  OFFSET 3.10165 -0.590103 1.0647
                  CHANNELS 3 Zrotation Xrotation Yrotation
                  End Site
                  {
                    OFFSET 2.48547 -0.328903 0.83742
                  }
                }
              }
              JOINT lRing1
              {
                OFFSET 8.82822 0.546677 1.51678
                CHANNELS 3 Zrotation Xrotation Yrotation
                JOINT lRing2
                {
                  OFFSET 2.60934 -0.819778 -0.0198488
                  CHANNELS 3 Zrotation Xrotation Yrotation
                  End Site
                  {
                    OFFSET 2.33842 -0.294052 0.168128
                  }
                }
              }
              JOINT lPinky1
              {
                OFFSET 8.27202 -0.0477905 -0.4584
                CHANNELS 3 Zrotation Xrotation Yrotation
                JOINT lPinky2
                {
                  OFFSET 1.82734 -0.647385 -0.700984
                  CHANNELS 3 Zrotation Xrotation Yrotation
                  End Site
                  {
                    OFFSET 1.69225 -0.51767 -0.607171
                  }
                }
              }
            }
          }
        }
      }
    }
  }
  JOINT rButtock
  {
    OFFSET -8.77824 4.35084 1.2192
    CHANNELS 3 Zrotation Xrotation Yrotation
    JOINT rThigh
    {
      OFFSET 0 -1.70687 -2.19456
      CHANNELS 3 Zrotation Xrotation Yrotation
      JOINT rShin
      {
        OFFSET 0 -36.8199 0.73152
        CHANNELS 3 Zrotation Xrotation Yrotation
        JOINT rFoot
        {
          OFFSET 0.73152 -45.1104 -5.12064
          CHANNELS 3 Zrotation Xrotation Yrotation
          End Site
          {
            OFFSET -1.1221 -3.69964 12.103
          }
        }
      }
    }
  }
  JOINT lButtock
  {
    OFFSET 8.77824 4.35084 1.2192
    CHANNELS 3 Zrotation Xrotation Yrotation
    JOINT lThigh
    {
      OFFSET 0 -1.70687 -2.19456
      CHANNELS 3 Zrotation Xrotation Yrotation
      JOINT lShin
      {
        OFFSET 0 -36.8199 0.73152
        CHANNELS 3 Zrotation Xrotation Yrotation
        JOINT lFoot
        {
          OFFSET -0.73152 -45.1104 -5.12064
          CHANNELS 3 Zrotation Xrotation Yrotation
          End Site
          {
            OFFSET 1.1221 -3.69964 12.103
          }
        }
      }
    }
  }
}
MOTION
Frames:	4
Frame Time:	0.00833333
4.19023 82.4855 56.6251 0.0 0.0 0.0 -4.35895 0.00629236 -0.117456 -1.20159 0.0324761 -0.207681 2.96079e-14 7.95139e-16 1.14301e-15 8.72758e-14 3.18055e-15 3.77691e-15 -0.0 0.0 0.0 -0.0 0.0 0.0 1.41633e-14 1.30647e-16 5.96354e-16 3.02172e-13 2.40405e-15 1.43125e-14 5.14763e-12 -1.46604e-12 1.74931e-13 5.90213e-11 2.01304e-12 2.41086e-12 1.39201e-10 1.18729e-12 5.60414e-12 2.40388e-10 2.05146e-12 9.6506e-12 1.39206e-10 1.18674e-12 5.58823e-12 7.73091 5.47488 0.417314 1.39201e-10 1.18645e-12 5.59778e-12 2.90554 0.965183 0.102902 1.39208e-10 1.18734e-12 5.5938e-12 10.2786 0.731801 0.0259123 1.39195e-10 1.18833e-12 5.60096e-12 2.22167 -0.733487 -0.20892 1.40651e-14 1.17252e-16 3.97569e-16 2.96741e-13 2.168e-15 1.21259e-14 5.15493e-12 1.63043e-12 1.59028e-13 5.89578e-11 -1.09483e-12 2.42676e-12 1.39095e-10 1.16448e-12 5.58187e-12 2.40214e-10 2.01329e-12 9.65457e-12 1.3909e-10 1.16567e-12 5.5946e-12 -7.73091 5.47488 -0.417314 1.39096e-10 1.16398e-12 5.58505e-12 -2.90554 0.965183 -0.102902 1.39084e-10 1.16428e-12 5.58823e-12 -10.2786 0.731801 -0.0259123 1.39105e-10 1.16766e-12 5.58505e-12 -2.22167 -0.733487 0.20892 -2.03217e-16 0.0 -3.88251e-19 -2.88808 -1.94435 0.0304143 -0.0079732 -2.07874 -0.0650979 -0.422371 4.00217 0.127132 2.03217e-16 0.0 3.88251e-19 -3.7254 -11.2507 0.483801 -0.0143132 14.7725 -0.388796 0.544854 -3.54243 0.012508
1.68482 82.2434 54.5908 -10.5695 -0.7443 8.8938 -1.5481 -2.65033 -0.0755042 -1.38455 -2.44981 -0.298183 -2.71169 3.63245 -3.4039 4.23497 -2.95321 -6.32482 -0.0 0.0 0.0 -0.0 0.0 0.0 -6.44686e-14 -5.02232e-14 1.1521e-14 21.9034 -3.28668 -4.00365 -4.0461 -1.80518 6.35524 0.24972 11.1255 1.45927 -7.38988e-11 -1.72716e-10 9.73625e-10 -9.64744e-11 -3.19588e-10 1.68411e-09 -7.38937e-11 -1.72716e-10 9.73609e-10 7.73091 5.47488 0.417314 -7.38994e-11 -1.72717e-10 9.73618e-10 2.90554 0.965183 0.102902 -7.38936e-11 -1.72716e-10 9.73617e-10 10.2786 0.731801 0.0259123 -7.39054e-11 -1.72715e-10 9.73626e-10 2.22167 -0.733487 -0.20892 -6.45709e-14 -5.02315e-14 1.1295e-14 -23.4044 0.1799 3.90194 3.75388 -1.62235 -5.95037 -0.0603919 5.45974 -0.75482 7.91796e-10 1.35502e-10 -2.74094e-10 1.36309e-09 2.28539e-10 -4.85708e-10 7.91792e-10 1.35503e-10 -2.74081e-10 -7.73091 5.47488 -0.417314 7.91798e-10 1.35502e-10 -2.7409e-10 -2.90554 0.965183 -0.102902 7.91786e-10 1.35502e-10 -2.74089e-10 -10.2786 0.731801 -0.0259123 7.91804e-10 1.35505e-10 -2.74094e-10 -2.22167 -0.733487 0.20892 -2.03217e-16 0.0 -3.88251e-19 -0.721579 -2.9668 7.00054 0.00418739 -1.78441 0.0403985 -0.886266 1.53088 -6.67062 2.03217e-16 0.0 3.88251e-19 -2.86361 -9.98896 -12.2768 -0.00793659 13.9801 -0.23613 1.60742 -9.95512 14.5354
1.67486 82.2136 54.5477 -10.6105 -0.7626 9.0932 1.44672 -5.43126 -0.0334347 -1.5902 -5.08445 -0.396119 -5.10841 7.42022 -7.04814 7.9955 -5.94856 -13.0663 -0.0 0.0 0.0 -0.0 0.0 0.0 -1.57257e-13 -1.07089e-13 2.49661e-14 44.5534 -6.70709 -8.28073 -7.89355 -3.64134 13.098 -0.150293 22.8782 3.19915 -2.91338e-10 -3.83048e-10 2.08058e-09 -4.36443e-10 -7.0707e-10 3.59814e-09 -2.91332e-10 -3.83047e-10 2.08057e-09 7.73091 5.47488 0.417314 -2.91338e-10 -3.83049e-10 2.08057e-09 2.90554 0.965183 0.102902 -2.91335e-10 -3.83049e-10 2.08058e-09 10.2786 0.731801 0.0259123 -2.91345e-10 -3.83047e-10 2.08059e-09 2.22167 -0.733487 -0.20892 -1.57361e-13 -1.07092e-13 2.47114e-14 -48.1762 0.347007 8.02787 7.3565 -3.27801 -12.2536 0.0351613 11.2526 -1.57932 1.55269e-09 3.08233e-10 -5.62381e-10 2.67261e-09 5.20923e-10 -9.97837e-10 1.55269e-09 3.08232e-10 -5.62366e-10 -7.73091 5.47488 -0.417314 1.55269e-09 3.08232e-10 -5.62375e-10 -2.90554 0.965183 -0.102902 1.55268e-09 3.08233e-10 -5.62376e-10 -10.2786 0.731801 -0.0259123 1.55269e-09 3.08235e-10 -5.62383e-10 -2.22167 -0.733487 0.20892 -2.03217e-16 0.0 -3.88251e-19 1.85098 -3.94953 14.3817 0.0158951 -1.47244 0.151801 -2.00777 -1.02776 -13.8509 2.03217e-16 0.0 3.88251e-19 -1.33579 -8.21964 -25.6386 0.00339035 13.1395 -0.0764738 6.19641 -15.0824 30.5792
1.66748 82.1768 54.5091 -10.6375 -0.7867 9.2698 4.08529 -7.96358 0.00872493 -1.77425 -7.41422 -0.482405 -6.82835 10.7423 -10.3749 10.7708 -8.4271 -19.164 -0.0 0.0 0.0 -0.0 0.0 0.0 -2.21732e-13 -1.50931e-13 3.33702e-14 64.3265 -9.66634 -12.1665 -10.9575 -5.14957 19.1365 -1.23195 33.2809 5.14033 -5.00099e-10 -5.20523e-10 2.90967e-09 -7.702e-10 -9.62868e-10 5.03302e-09 -5.00093e-10 -5.20521e-10 2.90965e-09 7.73091 5.47488 0.417314 -5.00099e-10 -5.20523e-10 2.90966e-09 2.90554 0.965183 0.102902 -5.00098e-10 -5.20523e-10 2.90966e-09 10.2786 0.731801 0.0259123 -5.00106e-10 -5.20521e-10 2.90968e-09 2.22167 -0.733487 -0.20892 -2.21843e-13 -1.50929e-13 3.30899e-14 -70.2863 0.529704 11.7063 10.2661 -4.65748 -17.9051 0.265772 16.3676 -2.34945 2.0972e-09 4.04178e-10 -8.33447e-10 3.60883e-09 6.81591e-10 -1.47643e-09 2.0972e-09 4.04177e-10 -8.33431e-10 -7.73091 5.47488 -0.417314 2.0972e-09 4.04178e-10 -8.33441e-10 -2.90554 0.965183 -0.102902 2.09719e-09 4.04178e-10 -8.33443e-10 -10.2786 0.731801 -0.0259123 2.0972e-09 4.0418e-10 -8.33452e-10 -2.22167 -0.733487 0.20892 -2.03217e-16 0.0 -3.88251e-19 4.33793 -4.7431 20.9878 0.0252563 -1.19574 0.251302 -3.54055 -3.17111 -20.2908 2.03217e-16 0.0 3.88251e-19 0.582867 -6.48372 -37.4933 0.0177833 12.3949 0.0660196 12.7101 -17.1543 45.4432
